<mxfile host="app.diagrams.net" modified="2024-03-16T21:46:12.323Z" agent="Mozilla/5.0 (Windows NT 10.0; Win64; x64) AppleWebKit/537.36 (KHTML, like Gecko) Chrome/122.0.0.0 Safari/537.36" etag="TQJIMhwIi3ZYS6ORgIzz" version="24.0.7" type="device">
  <diagram id="z-HF2zBQfR6wsiIavADN" name="State machines">
    <mxGraphModel dx="1434" dy="772" grid="1" gridSize="10" guides="1" tooltips="1" connect="1" arrows="1" fold="1" page="1" pageScale="1" pageWidth="850" pageHeight="1100" math="0" shadow="0">
      <root>
        <mxCell id="0" />
        <mxCell id="1" parent="0" />
        <mxCell id="Z2sYdIQOlESLzBZ8wHT8-97" value="S_MAIN_3" style="ellipse;whiteSpace=wrap;html=1;aspect=fixed;" vertex="1" parent="1">
          <mxGeometry x="380" y="460" width="80" height="80" as="geometry" />
        </mxCell>
        <mxCell id="Z2sYdIQOlESLzBZ8wHT8-101" value="E_UP" style="edgeStyle=orthogonalEdgeStyle;rounded=0;orthogonalLoop=1;jettySize=auto;html=1;entryX=0.5;entryY=0;entryDx=0;entryDy=0;fontStyle=2" edge="1" parent="1" source="Z2sYdIQOlESLzBZ8wHT8-98" target="Z2sYdIQOlESLzBZ8wHT8-97">
          <mxGeometry relative="1" as="geometry" />
        </mxCell>
        <mxCell id="Z2sYdIQOlESLzBZ8wHT8-98" value="S_MAIN_2" style="ellipse;whiteSpace=wrap;html=1;aspect=fixed;" vertex="1" parent="1">
          <mxGeometry x="380" y="320" width="80" height="80" as="geometry" />
        </mxCell>
        <mxCell id="Z2sYdIQOlESLzBZ8wHT8-100" value="E_UP" style="edgeStyle=orthogonalEdgeStyle;rounded=0;orthogonalLoop=1;jettySize=auto;html=1;entryX=0.5;entryY=0;entryDx=0;entryDy=0;fontStyle=2" edge="1" parent="1" source="Z2sYdIQOlESLzBZ8wHT8-99" target="Z2sYdIQOlESLzBZ8wHT8-98">
          <mxGeometry relative="1" as="geometry" />
        </mxCell>
        <mxCell id="Z2sYdIQOlESLzBZ8wHT8-99" value="S_MAIN_1" style="ellipse;whiteSpace=wrap;html=1;aspect=fixed;" vertex="1" parent="1">
          <mxGeometry x="380" y="180" width="80" height="80" as="geometry" />
        </mxCell>
        <mxCell id="Z2sYdIQOlESLzBZ8wHT8-103" value="S_INIT" style="ellipse;whiteSpace=wrap;html=1;aspect=fixed;" vertex="1" parent="1">
          <mxGeometry x="280" y="60" width="80" height="80" as="geometry" />
        </mxCell>
        <mxCell id="Z2sYdIQOlESLzBZ8wHT8-105" value="E_CONTINUE" style="edgeStyle=orthogonalEdgeStyle;rounded=0;orthogonalLoop=1;jettySize=auto;html=1;fontStyle=2" edge="1" parent="1" target="Z2sYdIQOlESLzBZ8wHT8-103">
          <mxGeometry relative="1" as="geometry">
            <mxPoint x="180" y="100" as="sourcePoint" />
          </mxGeometry>
        </mxCell>
        <mxCell id="Z2sYdIQOlESLzBZ8wHT8-107" value="E_CONTINUE" style="endArrow=classic;html=1;rounded=0;exitX=1;exitY=1;exitDx=0;exitDy=0;entryX=0;entryY=0;entryDx=0;entryDy=0;fontStyle=2" edge="1" parent="1" source="Z2sYdIQOlESLzBZ8wHT8-103" target="Z2sYdIQOlESLzBZ8wHT8-99">
          <mxGeometry width="50" height="50" relative="1" as="geometry">
            <mxPoint x="410" y="230" as="sourcePoint" />
            <mxPoint x="460" y="180" as="targetPoint" />
          </mxGeometry>
        </mxCell>
        <mxCell id="Z2sYdIQOlESLzBZ8wHT8-108" value="RGBLED" style="ellipse;whiteSpace=wrap;html=1;aspect=fixed;fillColor=#f5f5f5;fontColor=#333333;strokeColor=#666666;" vertex="1" parent="1">
          <mxGeometry x="560" y="180" width="80" height="80" as="geometry" />
        </mxCell>
        <mxCell id="Z2sYdIQOlESLzBZ8wHT8-110" value="" style="endArrow=classic;html=1;rounded=0;exitX=0;exitY=0.5;exitDx=0;exitDy=0;entryX=1;entryY=0.5;entryDx=0;entryDy=0;" edge="1" parent="1" source="Z2sYdIQOlESLzBZ8wHT8-108" target="Z2sYdIQOlESLzBZ8wHT8-99">
          <mxGeometry width="50" height="50" relative="1" as="geometry">
            <mxPoint x="358" y="138" as="sourcePoint" />
            <mxPoint x="402" y="202" as="targetPoint" />
            <Array as="points" />
          </mxGeometry>
        </mxCell>
        <mxCell id="Z2sYdIQOlESLzBZ8wHT8-111" value="E_SELECT" style="endArrow=classic;html=1;rounded=0;exitX=1;exitY=0;exitDx=0;exitDy=0;entryX=0;entryY=0;entryDx=0;entryDy=0;fontStyle=2" edge="1" parent="1" source="Z2sYdIQOlESLzBZ8wHT8-99" target="Z2sYdIQOlESLzBZ8wHT8-108">
          <mxGeometry width="50" height="50" relative="1" as="geometry">
            <mxPoint x="542" y="258" as="sourcePoint" />
            <mxPoint x="458" y="258" as="targetPoint" />
            <Array as="points">
              <mxPoint x="510" y="180" />
            </Array>
          </mxGeometry>
        </mxCell>
        <mxCell id="Z2sYdIQOlESLzBZ8wHT8-112" value="E_UP" style="endArrow=classic;html=1;rounded=0;exitX=0;exitY=0.5;exitDx=0;exitDy=0;entryX=0;entryY=0.5;entryDx=0;entryDy=0;fontStyle=2" edge="1" parent="1" source="Z2sYdIQOlESLzBZ8wHT8-97" target="Z2sYdIQOlESLzBZ8wHT8-99">
          <mxGeometry width="50" height="50" relative="1" as="geometry">
            <mxPoint x="410" y="230" as="sourcePoint" />
            <mxPoint x="460" y="180" as="targetPoint" />
            <Array as="points">
              <mxPoint x="280" y="500" />
              <mxPoint x="280" y="360" />
              <mxPoint x="280" y="220" />
            </Array>
          </mxGeometry>
        </mxCell>
        <mxCell id="Z2sYdIQOlESLzBZ8wHT8-113" value="E_DOWN" style="endArrow=classic;html=1;rounded=0;exitX=0;exitY=1;exitDx=0;exitDy=0;entryX=0;entryY=0;entryDx=0;entryDy=0;fontStyle=2" edge="1" parent="1" source="Z2sYdIQOlESLzBZ8wHT8-99" target="Z2sYdIQOlESLzBZ8wHT8-97">
          <mxGeometry width="50" height="50" relative="1" as="geometry">
            <mxPoint x="410" y="230" as="sourcePoint" />
            <mxPoint x="460" y="180" as="targetPoint" />
            <Array as="points">
              <mxPoint x="340" y="250" />
              <mxPoint x="340" y="472" />
            </Array>
          </mxGeometry>
        </mxCell>
        <mxCell id="Z2sYdIQOlESLzBZ8wHT8-115" value="E_DOWN" style="endArrow=classic;html=1;rounded=0;exitX=1;exitY=0;exitDx=0;exitDy=0;entryX=1;entryY=1;entryDx=0;entryDy=0;align=left;fontStyle=2" edge="1" parent="1" source="Z2sYdIQOlESLzBZ8wHT8-97" target="Z2sYdIQOlESLzBZ8wHT8-98">
          <mxGeometry width="50" height="50" relative="1" as="geometry">
            <mxPoint x="360" y="460" as="sourcePoint" />
            <mxPoint x="410" y="410" as="targetPoint" />
            <Array as="points">
              <mxPoint x="460" y="430" />
            </Array>
          </mxGeometry>
        </mxCell>
        <mxCell id="Z2sYdIQOlESLzBZ8wHT8-116" value="E_DOWN" style="endArrow=classic;html=1;rounded=0;entryX=1;entryY=1;entryDx=0;entryDy=0;exitX=1;exitY=0;exitDx=0;exitDy=0;align=left;fontStyle=2" edge="1" parent="1" source="Z2sYdIQOlESLzBZ8wHT8-98" target="Z2sYdIQOlESLzBZ8wHT8-99">
          <mxGeometry width="50" height="50" relative="1" as="geometry">
            <mxPoint x="360" y="460" as="sourcePoint" />
            <mxPoint x="410" y="410" as="targetPoint" />
            <Array as="points">
              <mxPoint x="460" y="290" />
            </Array>
          </mxGeometry>
        </mxCell>
        <mxCell id="Z2sYdIQOlESLzBZ8wHT8-117" value="NEO" style="ellipse;whiteSpace=wrap;html=1;aspect=fixed;fillColor=#f5f5f5;fontColor=#333333;strokeColor=#666666;" vertex="1" parent="1">
          <mxGeometry x="560" y="320" width="80" height="80" as="geometry" />
        </mxCell>
        <mxCell id="Z2sYdIQOlESLzBZ8wHT8-118" value="" style="endArrow=classic;html=1;rounded=0;exitX=0;exitY=0.5;exitDx=0;exitDy=0;entryX=1;entryY=0.5;entryDx=0;entryDy=0;" edge="1" parent="1" source="Z2sYdIQOlESLzBZ8wHT8-117" target="Z2sYdIQOlESLzBZ8wHT8-98">
          <mxGeometry width="50" height="50" relative="1" as="geometry">
            <mxPoint x="570" y="230" as="sourcePoint" />
            <mxPoint x="470" y="230" as="targetPoint" />
            <Array as="points" />
          </mxGeometry>
        </mxCell>
        <mxCell id="Z2sYdIQOlESLzBZ8wHT8-119" value="E_SELECT" style="endArrow=classic;html=1;rounded=0;exitX=1;exitY=0;exitDx=0;exitDy=0;entryX=0;entryY=0;entryDx=0;entryDy=0;fontStyle=2;" edge="1" parent="1" source="Z2sYdIQOlESLzBZ8wHT8-98" target="Z2sYdIQOlESLzBZ8wHT8-117">
          <mxGeometry width="50" height="50" relative="1" as="geometry">
            <mxPoint x="458" y="202" as="sourcePoint" />
            <mxPoint x="582" y="202" as="targetPoint" />
            <Array as="points">
              <mxPoint x="510" y="320" />
            </Array>
          </mxGeometry>
        </mxCell>
        <mxCell id="Z2sYdIQOlESLzBZ8wHT8-120" value="SR" style="ellipse;whiteSpace=wrap;html=1;aspect=fixed;fillColor=#f5f5f5;fontColor=#333333;strokeColor=#666666;" vertex="1" parent="1">
          <mxGeometry x="560" y="460" width="80" height="80" as="geometry" />
        </mxCell>
        <mxCell id="Z2sYdIQOlESLzBZ8wHT8-121" value="" style="endArrow=classic;html=1;rounded=0;exitX=0;exitY=0.5;exitDx=0;exitDy=0;entryX=1;entryY=0.5;entryDx=0;entryDy=0;" edge="1" parent="1" source="Z2sYdIQOlESLzBZ8wHT8-120">
          <mxGeometry width="50" height="50" relative="1" as="geometry">
            <mxPoint x="570" y="370" as="sourcePoint" />
            <mxPoint x="460" y="500" as="targetPoint" />
            <Array as="points" />
          </mxGeometry>
        </mxCell>
        <mxCell id="Z2sYdIQOlESLzBZ8wHT8-122" value="E_SELECT" style="endArrow=classic;html=1;rounded=0;exitX=1;exitY=0;exitDx=0;exitDy=0;entryX=0;entryY=0;entryDx=0;entryDy=0;fontStyle=2;" edge="1" parent="1" target="Z2sYdIQOlESLzBZ8wHT8-120">
          <mxGeometry width="50" height="50" relative="1" as="geometry">
            <mxPoint x="448" y="472" as="sourcePoint" />
            <mxPoint x="582" y="342" as="targetPoint" />
            <Array as="points">
              <mxPoint x="510" y="460" />
            </Array>
          </mxGeometry>
        </mxCell>
        <mxCell id="Z2sYdIQOlESLzBZ8wHT8-123" value="S_RGBLED_3" style="ellipse;whiteSpace=wrap;html=1;aspect=fixed;" vertex="1" parent="1">
          <mxGeometry x="180" y="980" width="80" height="80" as="geometry" />
        </mxCell>
        <mxCell id="Z2sYdIQOlESLzBZ8wHT8-124" value="E_UP" style="edgeStyle=orthogonalEdgeStyle;rounded=0;orthogonalLoop=1;jettySize=auto;html=1;entryX=0.5;entryY=0;entryDx=0;entryDy=0;fontStyle=2" edge="1" parent="1" source="Z2sYdIQOlESLzBZ8wHT8-125" target="Z2sYdIQOlESLzBZ8wHT8-123">
          <mxGeometry relative="1" as="geometry" />
        </mxCell>
        <mxCell id="Z2sYdIQOlESLzBZ8wHT8-125" value="S_RGBLED_2" style="ellipse;whiteSpace=wrap;html=1;aspect=fixed;" vertex="1" parent="1">
          <mxGeometry x="180" y="840" width="80" height="80" as="geometry" />
        </mxCell>
        <mxCell id="Z2sYdIQOlESLzBZ8wHT8-126" value="E_UP" style="edgeStyle=orthogonalEdgeStyle;rounded=0;orthogonalLoop=1;jettySize=auto;html=1;entryX=0.5;entryY=0;entryDx=0;entryDy=0;fontStyle=2" edge="1" parent="1" source="Z2sYdIQOlESLzBZ8wHT8-127" target="Z2sYdIQOlESLzBZ8wHT8-125">
          <mxGeometry relative="1" as="geometry" />
        </mxCell>
        <mxCell id="Z2sYdIQOlESLzBZ8wHT8-127" value="S_RGBLED_1" style="ellipse;whiteSpace=wrap;html=1;aspect=fixed;" vertex="1" parent="1">
          <mxGeometry x="180" y="700" width="80" height="80" as="geometry" />
        </mxCell>
        <mxCell id="Z2sYdIQOlESLzBZ8wHT8-128" value="E_UP" style="endArrow=classic;html=1;rounded=0;exitX=0;exitY=0.5;exitDx=0;exitDy=0;entryX=0;entryY=0.5;entryDx=0;entryDy=0;fontStyle=2" edge="1" parent="1" source="Z2sYdIQOlESLzBZ8wHT8-123" target="Z2sYdIQOlESLzBZ8wHT8-127">
          <mxGeometry width="50" height="50" relative="1" as="geometry">
            <mxPoint x="210" y="750" as="sourcePoint" />
            <mxPoint x="260" y="700" as="targetPoint" />
            <Array as="points">
              <mxPoint x="80" y="1020" />
              <mxPoint x="80" y="880" />
              <mxPoint x="80" y="740" />
            </Array>
          </mxGeometry>
        </mxCell>
        <mxCell id="Z2sYdIQOlESLzBZ8wHT8-129" value="E_DOWN" style="endArrow=classic;html=1;rounded=0;exitX=0;exitY=1;exitDx=0;exitDy=0;entryX=0;entryY=0;entryDx=0;entryDy=0;fontStyle=2" edge="1" parent="1" source="Z2sYdIQOlESLzBZ8wHT8-127" target="Z2sYdIQOlESLzBZ8wHT8-123">
          <mxGeometry width="50" height="50" relative="1" as="geometry">
            <mxPoint x="210" y="750" as="sourcePoint" />
            <mxPoint x="260" y="700" as="targetPoint" />
            <Array as="points">
              <mxPoint x="140" y="768" />
              <mxPoint x="140" y="990" />
            </Array>
          </mxGeometry>
        </mxCell>
        <mxCell id="Z2sYdIQOlESLzBZ8wHT8-130" value="E_DOWN" style="endArrow=classic;html=1;rounded=0;exitX=1;exitY=0;exitDx=0;exitDy=0;entryX=1;entryY=1;entryDx=0;entryDy=0;align=left;fontStyle=2" edge="1" parent="1" source="Z2sYdIQOlESLzBZ8wHT8-123" target="Z2sYdIQOlESLzBZ8wHT8-125">
          <mxGeometry width="50" height="50" relative="1" as="geometry">
            <mxPoint x="160" y="980" as="sourcePoint" />
            <mxPoint x="210" y="930" as="targetPoint" />
            <Array as="points">
              <mxPoint x="260" y="950" />
            </Array>
          </mxGeometry>
        </mxCell>
        <mxCell id="Z2sYdIQOlESLzBZ8wHT8-131" value="E_DOWN" style="endArrow=classic;html=1;rounded=0;entryX=1;entryY=1;entryDx=0;entryDy=0;exitX=1;exitY=0;exitDx=0;exitDy=0;align=left;fontStyle=2" edge="1" parent="1" source="Z2sYdIQOlESLzBZ8wHT8-125" target="Z2sYdIQOlESLzBZ8wHT8-127">
          <mxGeometry width="50" height="50" relative="1" as="geometry">
            <mxPoint x="160" y="980" as="sourcePoint" />
            <mxPoint x="210" y="930" as="targetPoint" />
            <Array as="points">
              <mxPoint x="260" y="810" />
            </Array>
          </mxGeometry>
        </mxCell>
        <mxCell id="Z2sYdIQOlESLzBZ8wHT8-132" value="" style="ellipse;whiteSpace=wrap;html=1;aspect=fixed;fillColor=#000000;" vertex="1" parent="1">
          <mxGeometry x="160" y="90" width="20" height="20" as="geometry" />
        </mxCell>
        <mxCell id="Z2sYdIQOlESLzBZ8wHT8-135" value="" style="ellipse;whiteSpace=wrap;html=1;aspect=fixed;fillColor=#000000;" vertex="1" parent="1">
          <mxGeometry x="210" y="640" width="20" height="20" as="geometry" />
        </mxCell>
        <mxCell id="Z2sYdIQOlESLzBZ8wHT8-136" value="" style="endArrow=classic;html=1;rounded=0;exitX=0.5;exitY=1;exitDx=0;exitDy=0;entryX=0.5;entryY=0;entryDx=0;entryDy=0;" edge="1" parent="1" source="Z2sYdIQOlESLzBZ8wHT8-135" target="Z2sYdIQOlESLzBZ8wHT8-127">
          <mxGeometry width="50" height="50" relative="1" as="geometry">
            <mxPoint x="360" y="790" as="sourcePoint" />
            <mxPoint x="410" y="740" as="targetPoint" />
          </mxGeometry>
        </mxCell>
        <mxCell id="Z2sYdIQOlESLzBZ8wHT8-139" value="" style="ellipse;whiteSpace=wrap;html=1;aspect=fixed;fillColor=#000000;" vertex="1" parent="1">
          <mxGeometry x="350" y="870" width="20" height="20" as="geometry" />
        </mxCell>
        <mxCell id="Z2sYdIQOlESLzBZ8wHT8-140" value="E_BACK" style="endArrow=classic;html=1;rounded=0;entryX=0.5;entryY=0;entryDx=0;entryDy=0;exitX=1;exitY=0.5;exitDx=0;exitDy=0;fontStyle=2" edge="1" parent="1" source="Z2sYdIQOlESLzBZ8wHT8-127" target="Z2sYdIQOlESLzBZ8wHT8-139">
          <mxGeometry x="-0.5652" width="50" height="50" relative="1" as="geometry">
            <mxPoint x="360" y="870" as="sourcePoint" />
            <mxPoint x="410" y="820" as="targetPoint" />
            <Array as="points">
              <mxPoint x="360" y="740" />
            </Array>
            <mxPoint as="offset" />
          </mxGeometry>
        </mxCell>
        <mxCell id="Z2sYdIQOlESLzBZ8wHT8-142" value="E_BACK" style="endArrow=classic;html=1;rounded=0;entryX=0;entryY=0.5;entryDx=0;entryDy=0;exitX=1;exitY=0.5;exitDx=0;exitDy=0;fontStyle=2" edge="1" parent="1" source="Z2sYdIQOlESLzBZ8wHT8-125" target="Z2sYdIQOlESLzBZ8wHT8-139">
          <mxGeometry x="0.1111" width="50" height="50" relative="1" as="geometry">
            <mxPoint x="280" y="760" as="sourcePoint" />
            <mxPoint x="435" y="890" as="targetPoint" />
            <Array as="points" />
            <mxPoint as="offset" />
          </mxGeometry>
        </mxCell>
        <mxCell id="Z2sYdIQOlESLzBZ8wHT8-143" value="&lt;div&gt;RGBLED&lt;br&gt;&lt;/div&gt;" style="rounded=0;whiteSpace=wrap;html=1;fillColor=#f5f5f5;fontColor=#333333;strokeColor=#666666;fontStyle=1" vertex="1" parent="1">
          <mxGeometry x="60" y="600" width="320" height="20" as="geometry" />
        </mxCell>
        <mxCell id="Z2sYdIQOlESLzBZ8wHT8-144" value="E_BACK" style="endArrow=classic;html=1;rounded=0;entryX=0.5;entryY=1;entryDx=0;entryDy=0;exitX=1;exitY=0.5;exitDx=0;exitDy=0;fontStyle=2" edge="1" parent="1" source="Z2sYdIQOlESLzBZ8wHT8-123" target="Z2sYdIQOlESLzBZ8wHT8-139">
          <mxGeometry x="-0.5652" width="50" height="50" relative="1" as="geometry">
            <mxPoint x="270" y="750" as="sourcePoint" />
            <mxPoint x="370" y="880" as="targetPoint" />
            <Array as="points">
              <mxPoint x="360" y="1020" />
            </Array>
            <mxPoint as="offset" />
          </mxGeometry>
        </mxCell>
        <mxCell id="Z2sYdIQOlESLzBZ8wHT8-145" value="S_SR_3" style="ellipse;whiteSpace=wrap;html=1;aspect=fixed;" vertex="1" parent="1">
          <mxGeometry x="520" y="980" width="80" height="80" as="geometry" />
        </mxCell>
        <mxCell id="Z2sYdIQOlESLzBZ8wHT8-146" value="E_UP" style="edgeStyle=orthogonalEdgeStyle;rounded=0;orthogonalLoop=1;jettySize=auto;html=1;entryX=0.5;entryY=0;entryDx=0;entryDy=0;fontStyle=2" edge="1" parent="1" source="Z2sYdIQOlESLzBZ8wHT8-147" target="Z2sYdIQOlESLzBZ8wHT8-145">
          <mxGeometry relative="1" as="geometry" />
        </mxCell>
        <mxCell id="Z2sYdIQOlESLzBZ8wHT8-147" value="S_SR_2" style="ellipse;whiteSpace=wrap;html=1;aspect=fixed;" vertex="1" parent="1">
          <mxGeometry x="520" y="840" width="80" height="80" as="geometry" />
        </mxCell>
        <mxCell id="Z2sYdIQOlESLzBZ8wHT8-148" value="E_UP" style="edgeStyle=orthogonalEdgeStyle;rounded=0;orthogonalLoop=1;jettySize=auto;html=1;entryX=0.5;entryY=0;entryDx=0;entryDy=0;fontStyle=2" edge="1" parent="1" source="Z2sYdIQOlESLzBZ8wHT8-149" target="Z2sYdIQOlESLzBZ8wHT8-147">
          <mxGeometry relative="1" as="geometry" />
        </mxCell>
        <mxCell id="Z2sYdIQOlESLzBZ8wHT8-149" value="S_SR_1" style="ellipse;whiteSpace=wrap;html=1;aspect=fixed;" vertex="1" parent="1">
          <mxGeometry x="520" y="700" width="80" height="80" as="geometry" />
        </mxCell>
        <mxCell id="Z2sYdIQOlESLzBZ8wHT8-150" value="E_UP" style="endArrow=classic;html=1;rounded=0;entryX=0;entryY=0.5;entryDx=0;entryDy=0;fontStyle=2;exitX=0;exitY=0.5;exitDx=0;exitDy=0;" edge="1" parent="1" source="Z2sYdIQOlESLzBZ8wHT8-185" target="Z2sYdIQOlESLzBZ8wHT8-149">
          <mxGeometry width="50" height="50" relative="1" as="geometry">
            <mxPoint x="510" y="1570" as="sourcePoint" />
            <mxPoint x="600" y="700" as="targetPoint" />
            <Array as="points">
              <mxPoint x="420" y="1720" />
              <mxPoint x="420" y="880" />
              <mxPoint x="420" y="740" />
            </Array>
          </mxGeometry>
        </mxCell>
        <mxCell id="Z2sYdIQOlESLzBZ8wHT8-151" value="E_DOWN" style="endArrow=classic;html=1;rounded=0;exitX=0;exitY=1;exitDx=0;exitDy=0;entryX=0;entryY=0;entryDx=0;entryDy=0;fontStyle=2" edge="1" parent="1" source="Z2sYdIQOlESLzBZ8wHT8-149" target="Z2sYdIQOlESLzBZ8wHT8-185">
          <mxGeometry width="50" height="50" relative="1" as="geometry">
            <mxPoint x="550" y="750" as="sourcePoint" />
            <mxPoint x="600" y="700" as="targetPoint" />
            <Array as="points">
              <mxPoint x="480" y="768" />
              <mxPoint x="480" y="1692" />
            </Array>
          </mxGeometry>
        </mxCell>
        <mxCell id="Z2sYdIQOlESLzBZ8wHT8-152" value="E_DOWN" style="endArrow=classic;html=1;rounded=0;exitX=1;exitY=0;exitDx=0;exitDy=0;entryX=1;entryY=1;entryDx=0;entryDy=0;align=left;fontStyle=2" edge="1" parent="1" source="Z2sYdIQOlESLzBZ8wHT8-145" target="Z2sYdIQOlESLzBZ8wHT8-147">
          <mxGeometry width="50" height="50" relative="1" as="geometry">
            <mxPoint x="500" y="980" as="sourcePoint" />
            <mxPoint x="550" y="930" as="targetPoint" />
            <Array as="points">
              <mxPoint x="600" y="950" />
            </Array>
          </mxGeometry>
        </mxCell>
        <mxCell id="Z2sYdIQOlESLzBZ8wHT8-153" value="E_DOWN" style="endArrow=classic;html=1;rounded=0;entryX=1;entryY=1;entryDx=0;entryDy=0;exitX=1;exitY=0;exitDx=0;exitDy=0;align=left;fontStyle=2" edge="1" parent="1" source="Z2sYdIQOlESLzBZ8wHT8-147" target="Z2sYdIQOlESLzBZ8wHT8-149">
          <mxGeometry width="50" height="50" relative="1" as="geometry">
            <mxPoint x="500" y="980" as="sourcePoint" />
            <mxPoint x="550" y="930" as="targetPoint" />
            <Array as="points">
              <mxPoint x="600" y="810" />
            </Array>
          </mxGeometry>
        </mxCell>
        <mxCell id="Z2sYdIQOlESLzBZ8wHT8-154" value="" style="ellipse;whiteSpace=wrap;html=1;aspect=fixed;fillColor=#000000;" vertex="1" parent="1">
          <mxGeometry x="550" y="640" width="20" height="20" as="geometry" />
        </mxCell>
        <mxCell id="Z2sYdIQOlESLzBZ8wHT8-155" value="" style="endArrow=classic;html=1;rounded=0;exitX=0.5;exitY=1;exitDx=0;exitDy=0;entryX=0.5;entryY=0;entryDx=0;entryDy=0;" edge="1" parent="1" source="Z2sYdIQOlESLzBZ8wHT8-154" target="Z2sYdIQOlESLzBZ8wHT8-149">
          <mxGeometry width="50" height="50" relative="1" as="geometry">
            <mxPoint x="700" y="790" as="sourcePoint" />
            <mxPoint x="750" y="740" as="targetPoint" />
          </mxGeometry>
        </mxCell>
        <mxCell id="Z2sYdIQOlESLzBZ8wHT8-157" value="E_BACK" style="endArrow=classic;html=1;rounded=0;entryX=0.5;entryY=0;entryDx=0;entryDy=0;exitX=1;exitY=0.5;exitDx=0;exitDy=0;fontStyle=2" edge="1" parent="1" source="Z2sYdIQOlESLzBZ8wHT8-149" target="Z2sYdIQOlESLzBZ8wHT8-156">
          <mxGeometry x="-0.8276" width="50" height="50" relative="1" as="geometry">
            <mxPoint x="700" y="870" as="sourcePoint" />
            <mxPoint x="750" y="820" as="targetPoint" />
            <Array as="points">
              <mxPoint x="700" y="740" />
            </Array>
            <mxPoint as="offset" />
          </mxGeometry>
        </mxCell>
        <mxCell id="Z2sYdIQOlESLzBZ8wHT8-158" value="E_BACK" style="endArrow=classic;html=1;rounded=0;entryX=0.5;entryY=0;entryDx=0;entryDy=0;exitX=1;exitY=0.5;exitDx=0;exitDy=0;fontStyle=2" edge="1" parent="1" source="Z2sYdIQOlESLzBZ8wHT8-147" target="Z2sYdIQOlESLzBZ8wHT8-156">
          <mxGeometry x="-0.7727" width="50" height="50" relative="1" as="geometry">
            <mxPoint x="620" y="760" as="sourcePoint" />
            <mxPoint x="775" y="890" as="targetPoint" />
            <Array as="points">
              <mxPoint x="700" y="880" />
            </Array>
            <mxPoint as="offset" />
          </mxGeometry>
        </mxCell>
        <mxCell id="Z2sYdIQOlESLzBZ8wHT8-159" value="&lt;div&gt;SR&lt;br&gt;&lt;/div&gt;" style="rounded=0;whiteSpace=wrap;html=1;fillColor=#f5f5f5;fontColor=#333333;strokeColor=#666666;fontStyle=1" vertex="1" parent="1">
          <mxGeometry x="400" y="600" width="320" height="20" as="geometry" />
        </mxCell>
        <mxCell id="Z2sYdIQOlESLzBZ8wHT8-160" value="E_BACK" style="endArrow=classic;html=1;rounded=0;entryX=0.5;entryY=1;entryDx=0;entryDy=0;exitX=1;exitY=0.5;exitDx=0;exitDy=0;fontStyle=2" edge="1" parent="1" source="Z2sYdIQOlESLzBZ8wHT8-145" target="Z2sYdIQOlESLzBZ8wHT8-156">
          <mxGeometry x="-0.6875" width="50" height="50" relative="1" as="geometry">
            <mxPoint x="610" y="750" as="sourcePoint" />
            <mxPoint x="710" y="880" as="targetPoint" />
            <Array as="points">
              <mxPoint x="700" y="1020" />
            </Array>
            <mxPoint as="offset" />
          </mxGeometry>
        </mxCell>
        <mxCell id="Z2sYdIQOlESLzBZ8wHT8-165" value="S_SR_4" style="ellipse;whiteSpace=wrap;html=1;aspect=fixed;" vertex="1" parent="1">
          <mxGeometry x="520" y="1120" width="80" height="80" as="geometry" />
        </mxCell>
        <mxCell id="Z2sYdIQOlESLzBZ8wHT8-166" value="E_UP" style="edgeStyle=orthogonalEdgeStyle;rounded=0;orthogonalLoop=1;jettySize=auto;html=1;entryX=0.5;entryY=0;entryDx=0;entryDy=0;fontStyle=2" edge="1" parent="1" target="Z2sYdIQOlESLzBZ8wHT8-165">
          <mxGeometry relative="1" as="geometry">
            <mxPoint x="560" y="1060" as="sourcePoint" />
          </mxGeometry>
        </mxCell>
        <mxCell id="Z2sYdIQOlESLzBZ8wHT8-167" value="E_DOWN" style="endArrow=classic;html=1;rounded=0;exitX=1;exitY=0;exitDx=0;exitDy=0;entryX=1;entryY=1;entryDx=0;entryDy=0;align=left;fontStyle=2" edge="1" parent="1" source="Z2sYdIQOlESLzBZ8wHT8-165">
          <mxGeometry width="50" height="50" relative="1" as="geometry">
            <mxPoint x="500" y="1120" as="sourcePoint" />
            <mxPoint x="588" y="1048" as="targetPoint" />
            <Array as="points">
              <mxPoint x="600" y="1090" />
            </Array>
          </mxGeometry>
        </mxCell>
        <mxCell id="Z2sYdIQOlESLzBZ8wHT8-168" value="E_BACK" style="endArrow=classic;html=1;rounded=0;entryX=0.5;entryY=0;entryDx=0;entryDy=0;exitX=1;exitY=0.5;exitDx=0;exitDy=0;fontStyle=2" edge="1" parent="1" source="Z2sYdIQOlESLzBZ8wHT8-165" target="Z2sYdIQOlESLzBZ8wHT8-156">
          <mxGeometry x="-0.375" width="50" height="50" relative="1" as="geometry">
            <mxPoint x="610" y="890" as="sourcePoint" />
            <mxPoint x="700" y="1030" as="targetPoint" />
            <Array as="points">
              <mxPoint x="700" y="1160" />
            </Array>
            <mxPoint as="offset" />
          </mxGeometry>
        </mxCell>
        <mxCell id="Z2sYdIQOlESLzBZ8wHT8-169" value="S_SR_5" style="ellipse;whiteSpace=wrap;html=1;aspect=fixed;" vertex="1" parent="1">
          <mxGeometry x="520" y="1260" width="80" height="80" as="geometry" />
        </mxCell>
        <mxCell id="Z2sYdIQOlESLzBZ8wHT8-170" value="E_UP" style="edgeStyle=orthogonalEdgeStyle;rounded=0;orthogonalLoop=1;jettySize=auto;html=1;entryX=0.5;entryY=0;entryDx=0;entryDy=0;fontStyle=2" edge="1" parent="1" target="Z2sYdIQOlESLzBZ8wHT8-169">
          <mxGeometry relative="1" as="geometry">
            <mxPoint x="560" y="1200" as="sourcePoint" />
          </mxGeometry>
        </mxCell>
        <mxCell id="Z2sYdIQOlESLzBZ8wHT8-171" value="E_DOWN" style="endArrow=classic;html=1;rounded=0;exitX=1;exitY=0;exitDx=0;exitDy=0;entryX=1;entryY=1;entryDx=0;entryDy=0;align=left;fontStyle=2" edge="1" parent="1" source="Z2sYdIQOlESLzBZ8wHT8-169">
          <mxGeometry width="50" height="50" relative="1" as="geometry">
            <mxPoint x="500" y="1260" as="sourcePoint" />
            <mxPoint x="588" y="1188" as="targetPoint" />
            <Array as="points">
              <mxPoint x="600" y="1230" />
            </Array>
          </mxGeometry>
        </mxCell>
        <mxCell id="Z2sYdIQOlESLzBZ8wHT8-177" value="S_SR_6" style="ellipse;whiteSpace=wrap;html=1;aspect=fixed;" vertex="1" parent="1">
          <mxGeometry x="520" y="1400" width="80" height="80" as="geometry" />
        </mxCell>
        <mxCell id="Z2sYdIQOlESLzBZ8wHT8-178" value="E_UP" style="edgeStyle=orthogonalEdgeStyle;rounded=0;orthogonalLoop=1;jettySize=auto;html=1;entryX=0.5;entryY=0;entryDx=0;entryDy=0;fontStyle=2" edge="1" parent="1" target="Z2sYdIQOlESLzBZ8wHT8-177">
          <mxGeometry relative="1" as="geometry">
            <mxPoint x="560" y="1340" as="sourcePoint" />
          </mxGeometry>
        </mxCell>
        <mxCell id="Z2sYdIQOlESLzBZ8wHT8-179" value="E_DOWN" style="endArrow=classic;html=1;rounded=0;exitX=1;exitY=0;exitDx=0;exitDy=0;entryX=1;entryY=1;entryDx=0;entryDy=0;align=left;fontStyle=2" edge="1" parent="1" source="Z2sYdIQOlESLzBZ8wHT8-177">
          <mxGeometry width="50" height="50" relative="1" as="geometry">
            <mxPoint x="500" y="1400" as="sourcePoint" />
            <mxPoint x="588" y="1328" as="targetPoint" />
            <Array as="points">
              <mxPoint x="600" y="1370" />
            </Array>
          </mxGeometry>
        </mxCell>
        <mxCell id="Z2sYdIQOlESLzBZ8wHT8-180" value="E_BACK" style="endArrow=classic;html=1;rounded=0;entryX=0.5;entryY=1;entryDx=0;entryDy=0;exitX=1;exitY=0.5;exitDx=0;exitDy=0;fontStyle=2" edge="1" parent="1" source="Z2sYdIQOlESLzBZ8wHT8-177" target="Z2sYdIQOlESLzBZ8wHT8-156">
          <mxGeometry x="-0.6667" width="50" height="50" relative="1" as="geometry">
            <mxPoint x="610" y="1170" as="sourcePoint" />
            <mxPoint x="700" y="1310" as="targetPoint" />
            <Array as="points">
              <mxPoint x="700" y="1440" />
            </Array>
            <mxPoint as="offset" />
          </mxGeometry>
        </mxCell>
        <mxCell id="Z2sYdIQOlESLzBZ8wHT8-181" value="S_SR_7" style="ellipse;whiteSpace=wrap;html=1;aspect=fixed;" vertex="1" parent="1">
          <mxGeometry x="520" y="1540" width="80" height="80" as="geometry" />
        </mxCell>
        <mxCell id="Z2sYdIQOlESLzBZ8wHT8-182" value="E_UP" style="edgeStyle=orthogonalEdgeStyle;rounded=0;orthogonalLoop=1;jettySize=auto;html=1;entryX=0.5;entryY=0;entryDx=0;entryDy=0;fontStyle=2" edge="1" parent="1" target="Z2sYdIQOlESLzBZ8wHT8-181">
          <mxGeometry relative="1" as="geometry">
            <mxPoint x="560" y="1480" as="sourcePoint" />
          </mxGeometry>
        </mxCell>
        <mxCell id="Z2sYdIQOlESLzBZ8wHT8-183" value="E_DOWN" style="endArrow=classic;html=1;rounded=0;exitX=1;exitY=0;exitDx=0;exitDy=0;entryX=1;entryY=1;entryDx=0;entryDy=0;align=left;fontStyle=2" edge="1" parent="1" source="Z2sYdIQOlESLzBZ8wHT8-181">
          <mxGeometry width="50" height="50" relative="1" as="geometry">
            <mxPoint x="500" y="1540" as="sourcePoint" />
            <mxPoint x="588" y="1468" as="targetPoint" />
            <Array as="points">
              <mxPoint x="600" y="1510" />
            </Array>
          </mxGeometry>
        </mxCell>
        <mxCell id="Z2sYdIQOlESLzBZ8wHT8-184" value="E_BACK" style="endArrow=classic;html=1;rounded=0;exitX=1;exitY=0.5;exitDx=0;exitDy=0;fontStyle=2;entryX=0.5;entryY=1;entryDx=0;entryDy=0;" edge="1" parent="1" source="Z2sYdIQOlESLzBZ8wHT8-181" target="Z2sYdIQOlESLzBZ8wHT8-156">
          <mxGeometry x="-0.7674" width="50" height="50" relative="1" as="geometry">
            <mxPoint x="610" y="1310" as="sourcePoint" />
            <mxPoint x="700" y="1250" as="targetPoint" />
            <Array as="points">
              <mxPoint x="700" y="1580" />
            </Array>
            <mxPoint as="offset" />
          </mxGeometry>
        </mxCell>
        <mxCell id="Z2sYdIQOlESLzBZ8wHT8-185" value="S_SR_8" style="ellipse;whiteSpace=wrap;html=1;aspect=fixed;" vertex="1" parent="1">
          <mxGeometry x="520" y="1680" width="80" height="80" as="geometry" />
        </mxCell>
        <mxCell id="Z2sYdIQOlESLzBZ8wHT8-186" value="E_UP" style="edgeStyle=orthogonalEdgeStyle;rounded=0;orthogonalLoop=1;jettySize=auto;html=1;entryX=0.5;entryY=0;entryDx=0;entryDy=0;fontStyle=2" edge="1" parent="1" target="Z2sYdIQOlESLzBZ8wHT8-185">
          <mxGeometry relative="1" as="geometry">
            <mxPoint x="560" y="1620" as="sourcePoint" />
          </mxGeometry>
        </mxCell>
        <mxCell id="Z2sYdIQOlESLzBZ8wHT8-187" value="E_DOWN" style="endArrow=classic;html=1;rounded=0;exitX=1;exitY=0;exitDx=0;exitDy=0;entryX=1;entryY=1;entryDx=0;entryDy=0;align=left;fontStyle=2" edge="1" parent="1" source="Z2sYdIQOlESLzBZ8wHT8-185">
          <mxGeometry width="50" height="50" relative="1" as="geometry">
            <mxPoint x="500" y="1680" as="sourcePoint" />
            <mxPoint x="588" y="1608" as="targetPoint" />
            <Array as="points">
              <mxPoint x="600" y="1650" />
            </Array>
          </mxGeometry>
        </mxCell>
        <mxCell id="Z2sYdIQOlESLzBZ8wHT8-188" value="E_BACK" style="endArrow=classic;html=1;rounded=0;entryX=0.5;entryY=1;entryDx=0;entryDy=0;exitX=1;exitY=0.5;exitDx=0;exitDy=0;fontStyle=2" edge="1" parent="1" source="Z2sYdIQOlESLzBZ8wHT8-185" target="Z2sYdIQOlESLzBZ8wHT8-156">
          <mxGeometry x="-0.8276" width="50" height="50" relative="1" as="geometry">
            <mxPoint x="610" y="1450" as="sourcePoint" />
            <mxPoint x="700" y="1590" as="targetPoint" />
            <Array as="points">
              <mxPoint x="700" y="1720" />
            </Array>
            <mxPoint as="offset" />
          </mxGeometry>
        </mxCell>
        <mxCell id="Z2sYdIQOlESLzBZ8wHT8-189" value="E_BACK" style="endArrow=classic;html=1;rounded=0;entryX=0.5;entryY=1;entryDx=0;entryDy=0;exitX=1;exitY=0.5;exitDx=0;exitDy=0;fontStyle=2" edge="1" parent="1" source="Z2sYdIQOlESLzBZ8wHT8-169" target="Z2sYdIQOlESLzBZ8wHT8-156">
          <mxGeometry x="-0.375" width="50" height="50" relative="1" as="geometry">
            <mxPoint x="600" y="1300" as="sourcePoint" />
            <mxPoint x="700" y="1170" as="targetPoint" />
            <Array as="points">
              <mxPoint x="700" y="1300" />
            </Array>
            <mxPoint as="offset" />
          </mxGeometry>
        </mxCell>
        <mxCell id="Z2sYdIQOlESLzBZ8wHT8-156" value="" style="ellipse;whiteSpace=wrap;html=1;aspect=fixed;fillColor=#000000;" vertex="1" parent="1">
          <mxGeometry x="690" y="1220" width="20" height="20" as="geometry" />
        </mxCell>
        <mxCell id="Z2sYdIQOlESLzBZ8wHT8-190" value="S_NEO_R1" style="ellipse;whiteSpace=wrap;html=1;aspect=fixed;" vertex="1" parent="1">
          <mxGeometry x="790" y="700" width="80" height="80" as="geometry" />
        </mxCell>
        <mxCell id="Z2sYdIQOlESLzBZ8wHT8-191" value="" style="ellipse;whiteSpace=wrap;html=1;aspect=fixed;fillColor=#000000;" vertex="1" parent="1">
          <mxGeometry x="820" y="640" width="20" height="20" as="geometry" />
        </mxCell>
        <mxCell id="Z2sYdIQOlESLzBZ8wHT8-192" value="" style="endArrow=classic;html=1;rounded=0;exitX=0.5;exitY=1;exitDx=0;exitDy=0;entryX=0.5;entryY=0;entryDx=0;entryDy=0;" edge="1" parent="1" source="Z2sYdIQOlESLzBZ8wHT8-191" target="Z2sYdIQOlESLzBZ8wHT8-190">
          <mxGeometry width="50" height="50" relative="1" as="geometry">
            <mxPoint x="970" y="790" as="sourcePoint" />
            <mxPoint x="1020" y="740" as="targetPoint" />
          </mxGeometry>
        </mxCell>
        <mxCell id="Z2sYdIQOlESLzBZ8wHT8-193" value="&lt;div&gt;NEO&lt;br&gt;&lt;/div&gt;" style="rounded=0;whiteSpace=wrap;html=1;fillColor=#f5f5f5;fontColor=#333333;strokeColor=#666666;fontStyle=1" vertex="1" parent="1">
          <mxGeometry x="740" y="600" width="540" height="20" as="geometry" />
        </mxCell>
        <mxCell id="Z2sYdIQOlESLzBZ8wHT8-194" value="S_NEO_R2" style="ellipse;whiteSpace=wrap;html=1;aspect=fixed;" vertex="1" parent="1">
          <mxGeometry x="950" y="700" width="80" height="80" as="geometry" />
        </mxCell>
        <mxCell id="Z2sYdIQOlESLzBZ8wHT8-195" value="E_TIMER" style="endArrow=classic;html=1;rounded=0;exitX=1;exitY=0.5;exitDx=0;exitDy=0;entryX=0;entryY=0.5;entryDx=0;entryDy=0;fontStyle=2" edge="1" parent="1" source="Z2sYdIQOlESLzBZ8wHT8-190" target="Z2sYdIQOlESLzBZ8wHT8-194">
          <mxGeometry width="50" height="50" relative="1" as="geometry">
            <mxPoint x="830" y="650" as="sourcePoint" />
            <mxPoint x="880" y="600" as="targetPoint" />
          </mxGeometry>
        </mxCell>
        <mxCell id="Z2sYdIQOlESLzBZ8wHT8-196" value="S_NEO_R3" style="ellipse;whiteSpace=wrap;html=1;aspect=fixed;" vertex="1" parent="1">
          <mxGeometry x="1110" y="700" width="80" height="80" as="geometry" />
        </mxCell>
        <mxCell id="Z2sYdIQOlESLzBZ8wHT8-197" value="E_TIMER" style="endArrow=classic;html=1;rounded=0;exitX=1;exitY=0.5;exitDx=0;exitDy=0;entryX=0;entryY=0.5;entryDx=0;entryDy=0;fontStyle=2" edge="1" parent="1" target="Z2sYdIQOlESLzBZ8wHT8-196">
          <mxGeometry width="50" height="50" relative="1" as="geometry">
            <mxPoint x="1030" y="740" as="sourcePoint" />
            <mxPoint x="1040" y="600" as="targetPoint" />
          </mxGeometry>
        </mxCell>
        <mxCell id="Z2sYdIQOlESLzBZ8wHT8-198" value="E_TIMER" style="endArrow=classic;html=1;rounded=0;exitX=1;exitY=0.5;exitDx=0;exitDy=0;fontStyle=2" edge="1" parent="1" source="Z2sYdIQOlESLzBZ8wHT8-196">
          <mxGeometry width="50" height="50" relative="1" as="geometry">
            <mxPoint x="1040" y="750" as="sourcePoint" />
            <mxPoint x="1270" y="740" as="targetPoint" />
          </mxGeometry>
        </mxCell>
        <mxCell id="Z2sYdIQOlESLzBZ8wHT8-199" value="" style="endArrow=classic;html=1;rounded=0;entryX=0;entryY=0.5;entryDx=0;entryDy=0;" edge="1" parent="1" target="Z2sYdIQOlESLzBZ8wHT8-190">
          <mxGeometry width="50" height="50" relative="1" as="geometry">
            <mxPoint x="750" y="740" as="sourcePoint" />
            <mxPoint x="880" y="600" as="targetPoint" />
          </mxGeometry>
        </mxCell>
        <mxCell id="Z2sYdIQOlESLzBZ8wHT8-200" value="S_NEO_G1" style="ellipse;whiteSpace=wrap;html=1;aspect=fixed;" vertex="1" parent="1">
          <mxGeometry x="790" y="860" width="80" height="80" as="geometry" />
        </mxCell>
        <mxCell id="Z2sYdIQOlESLzBZ8wHT8-201" value="S_NEO_G2" style="ellipse;whiteSpace=wrap;html=1;aspect=fixed;" vertex="1" parent="1">
          <mxGeometry x="950" y="860" width="80" height="80" as="geometry" />
        </mxCell>
        <mxCell id="Z2sYdIQOlESLzBZ8wHT8-202" value="E_TIMER" style="endArrow=classic;html=1;rounded=0;exitX=1;exitY=0.5;exitDx=0;exitDy=0;entryX=0;entryY=0.5;entryDx=0;entryDy=0;fontStyle=2" edge="1" parent="1" source="Z2sYdIQOlESLzBZ8wHT8-200" target="Z2sYdIQOlESLzBZ8wHT8-201">
          <mxGeometry width="50" height="50" relative="1" as="geometry">
            <mxPoint x="830" y="810" as="sourcePoint" />
            <mxPoint x="880" y="760" as="targetPoint" />
          </mxGeometry>
        </mxCell>
        <mxCell id="Z2sYdIQOlESLzBZ8wHT8-203" value="S_NEO_G3" style="ellipse;whiteSpace=wrap;html=1;aspect=fixed;" vertex="1" parent="1">
          <mxGeometry x="1110" y="860" width="80" height="80" as="geometry" />
        </mxCell>
        <mxCell id="Z2sYdIQOlESLzBZ8wHT8-204" value="E_TIMER" style="endArrow=classic;html=1;rounded=0;exitX=1;exitY=0.5;exitDx=0;exitDy=0;entryX=0;entryY=0.5;entryDx=0;entryDy=0;fontStyle=2" edge="1" parent="1" target="Z2sYdIQOlESLzBZ8wHT8-203">
          <mxGeometry width="50" height="50" relative="1" as="geometry">
            <mxPoint x="1030" y="900" as="sourcePoint" />
            <mxPoint x="1040" y="760" as="targetPoint" />
          </mxGeometry>
        </mxCell>
        <mxCell id="Z2sYdIQOlESLzBZ8wHT8-205" value="E_TIMER" style="endArrow=classic;html=1;rounded=0;exitX=1;exitY=0.5;exitDx=0;exitDy=0;fontStyle=2" edge="1" parent="1" source="Z2sYdIQOlESLzBZ8wHT8-203">
          <mxGeometry width="50" height="50" relative="1" as="geometry">
            <mxPoint x="1040" y="910" as="sourcePoint" />
            <mxPoint x="1270" y="900" as="targetPoint" />
          </mxGeometry>
        </mxCell>
        <mxCell id="Z2sYdIQOlESLzBZ8wHT8-206" value="" style="endArrow=classic;html=1;rounded=0;entryX=0;entryY=0.5;entryDx=0;entryDy=0;" edge="1" parent="1" target="Z2sYdIQOlESLzBZ8wHT8-200">
          <mxGeometry width="50" height="50" relative="1" as="geometry">
            <mxPoint x="750" y="900" as="sourcePoint" />
            <mxPoint x="880" y="760" as="targetPoint" />
          </mxGeometry>
        </mxCell>
        <mxCell id="Z2sYdIQOlESLzBZ8wHT8-207" value="E_UP" style="endArrow=classic;html=1;rounded=0;entryX=0.5;entryY=0;entryDx=0;entryDy=0;exitX=0.5;exitY=1;exitDx=0;exitDy=0;fontStyle=2" edge="1" parent="1" source="Z2sYdIQOlESLzBZ8wHT8-190" target="Z2sYdIQOlESLzBZ8wHT8-200">
          <mxGeometry width="50" height="50" relative="1" as="geometry">
            <mxPoint x="830" y="740" as="sourcePoint" />
            <mxPoint x="880" y="690" as="targetPoint" />
          </mxGeometry>
        </mxCell>
        <mxCell id="Z2sYdIQOlESLzBZ8wHT8-208" value="E_UP" style="endArrow=classic;html=1;rounded=0;entryX=0.5;entryY=0;entryDx=0;entryDy=0;exitX=0.5;exitY=1;exitDx=0;exitDy=0;fontStyle=2" edge="1" parent="1" source="Z2sYdIQOlESLzBZ8wHT8-194" target="Z2sYdIQOlESLzBZ8wHT8-201">
          <mxGeometry width="50" height="50" relative="1" as="geometry">
            <mxPoint x="840" y="790" as="sourcePoint" />
            <mxPoint x="840" y="870" as="targetPoint" />
          </mxGeometry>
        </mxCell>
        <mxCell id="Z2sYdIQOlESLzBZ8wHT8-209" value="E_UP" style="endArrow=classic;html=1;rounded=0;entryX=0.5;entryY=0;entryDx=0;entryDy=0;exitX=0.5;exitY=1;exitDx=0;exitDy=0;fontStyle=2" edge="1" parent="1" source="Z2sYdIQOlESLzBZ8wHT8-196" target="Z2sYdIQOlESLzBZ8wHT8-203">
          <mxGeometry width="50" height="50" relative="1" as="geometry">
            <mxPoint x="1000" y="790" as="sourcePoint" />
            <mxPoint x="1000" y="870" as="targetPoint" />
          </mxGeometry>
        </mxCell>
        <mxCell id="Z2sYdIQOlESLzBZ8wHT8-210" value="S_NEO_B1" style="ellipse;whiteSpace=wrap;html=1;aspect=fixed;" vertex="1" parent="1">
          <mxGeometry x="790" y="1020" width="80" height="80" as="geometry" />
        </mxCell>
        <mxCell id="Z2sYdIQOlESLzBZ8wHT8-211" value="S_NEO_B2" style="ellipse;whiteSpace=wrap;html=1;aspect=fixed;" vertex="1" parent="1">
          <mxGeometry x="950" y="1020" width="80" height="80" as="geometry" />
        </mxCell>
        <mxCell id="Z2sYdIQOlESLzBZ8wHT8-212" value="E_TIMER" style="endArrow=classic;html=1;rounded=0;exitX=1;exitY=0.5;exitDx=0;exitDy=0;entryX=0;entryY=0.5;entryDx=0;entryDy=0;fontStyle=2" edge="1" parent="1" source="Z2sYdIQOlESLzBZ8wHT8-210" target="Z2sYdIQOlESLzBZ8wHT8-211">
          <mxGeometry width="50" height="50" relative="1" as="geometry">
            <mxPoint x="830" y="970" as="sourcePoint" />
            <mxPoint x="880" y="920" as="targetPoint" />
          </mxGeometry>
        </mxCell>
        <mxCell id="Z2sYdIQOlESLzBZ8wHT8-213" value="S_NEO_B3" style="ellipse;whiteSpace=wrap;html=1;aspect=fixed;" vertex="1" parent="1">
          <mxGeometry x="1110" y="1020" width="80" height="80" as="geometry" />
        </mxCell>
        <mxCell id="Z2sYdIQOlESLzBZ8wHT8-214" value="E_TIMER" style="endArrow=classic;html=1;rounded=0;exitX=1;exitY=0.5;exitDx=0;exitDy=0;entryX=0;entryY=0.5;entryDx=0;entryDy=0;fontStyle=2" edge="1" parent="1" target="Z2sYdIQOlESLzBZ8wHT8-213">
          <mxGeometry width="50" height="50" relative="1" as="geometry">
            <mxPoint x="1030" y="1060" as="sourcePoint" />
            <mxPoint x="1040" y="920" as="targetPoint" />
          </mxGeometry>
        </mxCell>
        <mxCell id="Z2sYdIQOlESLzBZ8wHT8-215" value="E_TIMER" style="endArrow=classic;html=1;rounded=0;exitX=1;exitY=0.5;exitDx=0;exitDy=0;fontStyle=2" edge="1" parent="1" source="Z2sYdIQOlESLzBZ8wHT8-213">
          <mxGeometry width="50" height="50" relative="1" as="geometry">
            <mxPoint x="1040" y="1070" as="sourcePoint" />
            <mxPoint x="1270" y="1060" as="targetPoint" />
          </mxGeometry>
        </mxCell>
        <mxCell id="Z2sYdIQOlESLzBZ8wHT8-216" value="" style="endArrow=classic;html=1;rounded=0;entryX=0;entryY=0.5;entryDx=0;entryDy=0;" edge="1" parent="1" target="Z2sYdIQOlESLzBZ8wHT8-210">
          <mxGeometry width="50" height="50" relative="1" as="geometry">
            <mxPoint x="750" y="1060" as="sourcePoint" />
            <mxPoint x="880" y="920" as="targetPoint" />
          </mxGeometry>
        </mxCell>
        <mxCell id="Z2sYdIQOlESLzBZ8wHT8-217" value="E_UP" style="endArrow=classic;html=1;rounded=0;entryX=0.5;entryY=0;entryDx=0;entryDy=0;exitX=0.5;exitY=1;exitDx=0;exitDy=0;fontStyle=2" edge="1" parent="1" target="Z2sYdIQOlESLzBZ8wHT8-210">
          <mxGeometry width="50" height="50" relative="1" as="geometry">
            <mxPoint x="830" y="940" as="sourcePoint" />
            <mxPoint x="880" y="850" as="targetPoint" />
          </mxGeometry>
        </mxCell>
        <mxCell id="Z2sYdIQOlESLzBZ8wHT8-218" value="E_UP" style="endArrow=classic;html=1;rounded=0;entryX=0.5;entryY=0;entryDx=0;entryDy=0;exitX=0.5;exitY=1;exitDx=0;exitDy=0;fontStyle=2" edge="1" parent="1" target="Z2sYdIQOlESLzBZ8wHT8-211">
          <mxGeometry width="50" height="50" relative="1" as="geometry">
            <mxPoint x="990" y="940" as="sourcePoint" />
            <mxPoint x="840" y="1030" as="targetPoint" />
          </mxGeometry>
        </mxCell>
        <mxCell id="Z2sYdIQOlESLzBZ8wHT8-219" value="E_UP" style="endArrow=classic;html=1;rounded=0;entryX=0.5;entryY=0;entryDx=0;entryDy=0;exitX=0.5;exitY=1;exitDx=0;exitDy=0;fontStyle=2" edge="1" parent="1" target="Z2sYdIQOlESLzBZ8wHT8-213">
          <mxGeometry width="50" height="50" relative="1" as="geometry">
            <mxPoint x="1150" y="940" as="sourcePoint" />
            <mxPoint x="1000" y="1030" as="targetPoint" />
          </mxGeometry>
        </mxCell>
        <mxCell id="Z2sYdIQOlESLzBZ8wHT8-221" value="" style="endArrow=classic;html=1;rounded=0;exitX=1;exitY=1;exitDx=0;exitDy=0;" edge="1" parent="1" source="Z2sYdIQOlESLzBZ8wHT8-190">
          <mxGeometry width="50" height="50" relative="1" as="geometry">
            <mxPoint x="830" y="900" as="sourcePoint" />
            <mxPoint x="880" y="790" as="targetPoint" />
          </mxGeometry>
        </mxCell>
        <mxCell id="Z2sYdIQOlESLzBZ8wHT8-222" value="" style="endArrow=classic;html=1;rounded=0;exitX=1;exitY=1;exitDx=0;exitDy=0;" edge="1" parent="1" source="Z2sYdIQOlESLzBZ8wHT8-194">
          <mxGeometry width="50" height="50" relative="1" as="geometry">
            <mxPoint x="868" y="778" as="sourcePoint" />
            <mxPoint x="1040" y="790" as="targetPoint" />
          </mxGeometry>
        </mxCell>
        <mxCell id="Z2sYdIQOlESLzBZ8wHT8-223" value="" style="endArrow=classic;html=1;rounded=0;exitX=1;exitY=1;exitDx=0;exitDy=0;" edge="1" parent="1" source="Z2sYdIQOlESLzBZ8wHT8-196">
          <mxGeometry width="50" height="50" relative="1" as="geometry">
            <mxPoint x="878" y="788" as="sourcePoint" />
            <mxPoint x="1200" y="790" as="targetPoint" />
          </mxGeometry>
        </mxCell>
        <mxCell id="Z2sYdIQOlESLzBZ8wHT8-224" value="" style="endArrow=classic;html=1;rounded=0;exitX=1;exitY=1;exitDx=0;exitDy=0;" edge="1" parent="1">
          <mxGeometry width="50" height="50" relative="1" as="geometry">
            <mxPoint x="860" y="930" as="sourcePoint" />
            <mxPoint x="882" y="952" as="targetPoint" />
          </mxGeometry>
        </mxCell>
        <mxCell id="Z2sYdIQOlESLzBZ8wHT8-225" value="" style="endArrow=classic;html=1;rounded=0;exitX=1;exitY=1;exitDx=0;exitDy=0;" edge="1" parent="1">
          <mxGeometry width="50" height="50" relative="1" as="geometry">
            <mxPoint x="1020" y="930" as="sourcePoint" />
            <mxPoint x="1042" y="952" as="targetPoint" />
          </mxGeometry>
        </mxCell>
        <mxCell id="Z2sYdIQOlESLzBZ8wHT8-226" value="" style="endArrow=classic;html=1;rounded=0;exitX=1;exitY=1;exitDx=0;exitDy=0;" edge="1" parent="1">
          <mxGeometry width="50" height="50" relative="1" as="geometry">
            <mxPoint x="1180" y="930" as="sourcePoint" />
            <mxPoint x="1202" y="952" as="targetPoint" />
          </mxGeometry>
        </mxCell>
        <mxCell id="Z2sYdIQOlESLzBZ8wHT8-227" value="" style="endArrow=classic;html=1;rounded=0;exitX=1;exitY=1;exitDx=0;exitDy=0;" edge="1" parent="1">
          <mxGeometry width="50" height="50" relative="1" as="geometry">
            <mxPoint x="860" y="1090" as="sourcePoint" />
            <mxPoint x="882" y="1112" as="targetPoint" />
          </mxGeometry>
        </mxCell>
        <mxCell id="Z2sYdIQOlESLzBZ8wHT8-228" value="" style="endArrow=classic;html=1;rounded=0;exitX=1;exitY=1;exitDx=0;exitDy=0;" edge="1" parent="1">
          <mxGeometry width="50" height="50" relative="1" as="geometry">
            <mxPoint x="1020" y="1090" as="sourcePoint" />
            <mxPoint x="1042" y="1112" as="targetPoint" />
          </mxGeometry>
        </mxCell>
        <mxCell id="Z2sYdIQOlESLzBZ8wHT8-230" value="E_BACK" style="endArrow=classic;html=1;rounded=0;exitX=1;exitY=1;exitDx=0;exitDy=0;align=left;fontStyle=2;entryX=0;entryY=0;entryDx=0;entryDy=0;" edge="1" parent="1" target="Z2sYdIQOlESLzBZ8wHT8-220">
          <mxGeometry x="-0.5341" width="50" height="50" relative="1" as="geometry">
            <mxPoint x="1180" y="1090" as="sourcePoint" />
            <mxPoint x="1260" y="1110" as="targetPoint" />
            <mxPoint as="offset" />
          </mxGeometry>
        </mxCell>
        <mxCell id="Z2sYdIQOlESLzBZ8wHT8-220" value="" style="ellipse;whiteSpace=wrap;html=1;aspect=fixed;fillColor=#000000;" vertex="1" parent="1">
          <mxGeometry x="1210" y="1120" width="20" height="20" as="geometry" />
        </mxCell>
      </root>
    </mxGraphModel>
  </diagram>
</mxfile>
